<?xml version="1.0" encoding="utf-8"?>
<!-- Generator: Adobe Illustrator 19.1.0, SVG Export Plug-In . SVG Version: 6.00 Build 0)  -->
<svg version="1.1" id="Layer_1" xmlns="http://www.w3.org/2000/svg" xmlns:xlink="http://www.w3.org/1999/xlink" x="0px" y="0px"
	 viewBox="-273.8 402.6 37 37" style="enable-background:new -273.8 402.6 37 37;" xml:space="preserve">
<style type="text/css">
	.st0{fill:url(#SVGID_1_);}
	.st1{fill:#29417C;}
</style>
<g>
	<g>
		<g>
			<g>
				<g>
					<g>
						
							<radialGradient id="SVGID_1_" cx="-255.2846" cy="421.5732" r="17.1421" gradientTransform="matrix(1 0 0 -1 0 842.67)" gradientUnits="userSpaceOnUse">
							<stop  offset="0" style="stop-color:#FFFFFF"/>
							<stop  offset="0.3533" style="stop-color:#FBFBFB"/>
							<stop  offset="0.7109" style="stop-color:#EFEFEF"/>
							<stop  offset="0.894" style="stop-color:#E6E6E6"/>
						</radialGradient>
						<path class="st0" d="M-238.1,421.1c0,9.5-7.7,17.1-17.1,17.1c-9.5,0-17.1-7.7-17.1-17.1c0-9.5,7.7-17.1,17.1-17.1
							C-245.8,403.9-238.1,411.6-238.1,421.1z"/>
						<path class="st1" d="M-273.6,421.1c0-10.2,8.2-18.4,18.4-18.4l0,0c10.2,0,18.4,8.2,18.4,18.4l0,0c0,10.2-8.2,18.4-18.4,18.4
							l0,0C-265.5,439.5-273.6,431.2-273.6,421.1L-273.6,421.1z M-266.5,409.8c-2.9,2.9-4.7,6.8-4.7,11.2l0,0
							c0,4.4,1.8,8.3,4.6,11.2l0,0c2.9,2.9,6.8,4.6,11.2,4.6l0,0c4.4,0,8.4-1.8,11.2-4.6l0,0c2.9-2.9,4.6-6.8,4.6-11.2l0,0
							c0-4.4-1.8-8.4-4.6-11.2l0,0c-2.9-2.9-6.8-4.7-11.2-4.7l0,0C-259.6,405.2-263.6,407-266.5,409.8L-266.5,409.8z"/>
					</g>
				</g>
			</g>
		</g>
		<g>
			<polygon class="st1" points="-260.5,421.1 -260.5,414.2 -254.4,417.6 -248.4,421.1 -254.4,424.5 -260.5,428 			"/>
		</g>
	</g>
</g>
</svg>
